<svg width="1200" height="720" viewBox="0 0 1200 720" fill="none" xmlns="http://www.w3.org/2000/svg">
  <rect width="1200" height="720" rx="40" fill="#F8FAFC"/>
  <ellipse cx="600" cy="560" rx="360" ry="32" fill="#000000" opacity="0.18"/>
  <rect x="120" y="150" width="960" height="420" rx="36" fill="#050505"/>
  <path d="M220 350H980" stroke="#E2E8F0" stroke-width="6" stroke-linecap="round" opacity="0.35"/>
  <text x="170" y="220" fill="#F8FAFC" font-size="64" font-family="Arial, Helvetica, sans-serif" font-weight="700">Hyundai</text>
  <text x="170" y="286" fill="#A3A3A3" font-size="56" font-family="Arial, Helvetica, sans-serif" font-weight="700">Sonata</text>
  <text x="170" y="338" fill="#E2E8F0" font-size="26" font-family="Arial, Helvetica, sans-serif">Sedán · Elegancia · TurismoSur</text>
  <circle cx="370" cy="500" r="74" fill="#1F2937"/>
  <circle cx="840" cy="500" r="74" fill="#1F2937"/>
  <circle cx="370" cy="500" r="40" fill="#E2E8F0"/>
  <circle cx="840" cy="500" r="40" fill="#E2E8F0"/>
  <path d="M270 360C282 298 332 240 430 220C530 200 784 202 872 222C940 238 986 304 994 360L1000 442H250L270 360Z" fill="#111827"/>
</svg>